HIERARCHY
ROOT Hips
{
    OFFSET 0.000000 0.000000 0.000000
    CHANNELS 6 Xposition Yposition Zposition Zrotation Xrotation Yrotation
    JOINT Spine
    {
        OFFSET -0.000000 8.339920 0.000000
        CHANNELS 3 Zrotation Xrotation Yrotation
        JOINT Spine1
        {
            OFFSET -0.000000 25.214485 0.000000
            CHANNELS 3 Zrotation Xrotation Yrotation
            JOINT Neck
            {
                OFFSET -0.000000 25.110935 2.282812
                CHANNELS 3 Zrotation Xrotation Yrotation
                JOINT Head
                {
                    OFFSET -0.000000 14.238888 -2.034127
                    CHANNELS 3 Zrotation Xrotation Yrotation
                    End Site
                    {
                        OFFSET -0.000000 25.426584 0.000000
                    }
                }
            }
            JOINT LeftShoulder
            {
                OFFSET 4.025024 23.158985 -0.185822
                CHANNELS 3 Zrotation Xrotation Yrotation
                JOINT LeftArm
                {
                    OFFSET 11.674057 0.000000 0.000000
                    CHANNELS 3 Zrotation Xrotation Yrotation
                    JOINT LeftForeArm
                    {
                        OFFSET 31.688633 0.000000 0.000000
                        CHANNELS 3 Zrotation Xrotation Yrotation
                        JOINT LeftHand
                        {
                            OFFSET 29.704493 0.000000 0.000000
                            CHANNELS 3 Zrotation Xrotation Yrotation
                            End Site
                            {
                                OFFSET 15.255952 0.000000 0.000000
                            }
                        }
                    }
                }
            }
            JOINT RightShoulder
            {
                OFFSET -4.099539 23.158985 -0.185822
                CHANNELS 3 Zrotation Xrotation Yrotation
                JOINT RightArm
                {
                    OFFSET -11.674057 0.000000 0.000000
                    CHANNELS 3 Zrotation Xrotation Yrotation
                    JOINT RightForeArm
                    {
                        OFFSET -31.688633 0.000000 0.000000
                        CHANNELS 3 Zrotation Xrotation Yrotation
                        JOINT RightHand
                        {
                            OFFSET -29.704493 0.000000 0.000000
                            CHANNELS 3 Zrotation Xrotation Yrotation
                            End Site
                            {
                                OFFSET -15.255952 0.000000 0.000000
                            }
                        }
                    }
                }
            }
        }
    }
    JOINT LeftUpLeg
    {
        OFFSET 10.170634 0.000000 0.000000
        CHANNELS 3 Zrotation Xrotation Yrotation
        JOINT LeftLeg
        {
            OFFSET -0.000000 -41.352962 0.000000
            CHANNELS 3 Zrotation Xrotation Yrotation
            JOINT LeftFoot
            {
                OFFSET -0.000000 -47.535004 0.000000
                CHANNELS 3 Zrotation Xrotation Yrotation
                JOINT LeftToeBase
                {
                    OFFSET -0.000000 -6.610912 15.255952
                    CHANNELS 3 Zrotation Xrotation Yrotation
                    End Site
                    {
                        OFFSET -0.000000 0.000000 4.068254
                    }
                }
            }
        }
    }
    JOINT RightUpLeg
    {
        OFFSET -10.170634 0.000000 0.000000
        CHANNELS 3 Zrotation Xrotation Yrotation
        JOINT RightLeg
        {
            OFFSET -0.000000 -41.352962 0.000000
            CHANNELS 3 Zrotation Xrotation Yrotation
            JOINT RightFoot
            {
                OFFSET -0.000000 -47.535004 0.000000
                CHANNELS 3 Zrotation Xrotation Yrotation
                JOINT RightToeBase
                {
                    OFFSET -0.000000 -6.610912 15.255952
                    CHANNELS 3 Zrotation Xrotation Yrotation
                    End Site
                    {
                        OFFSET -0.000000 0.000000 4.068254
                    }
                }
            }
        }
    }
}
MOTION
Frames:    14
Frame Time:    0.008333
-65.573868    94.340096    35.246223    0.001380    -2.076726    87.668922    1.640968    -5.196341    -1.231204    0.662885    1.262516    -1.313001    -8.505499    30.002562    -3.830597    8.662113    -5.835774    -3.473808    15.214259    -0.869300    -1.262185    -22.633228    -13.094067    6.518123    4.143000    -14.222947    1.916173    3.274125    -14.103583    6.725056    -20.419504    0.467949    -6.621657    22.017874    -3.681821    4.236511    -2.272907    -6.893012    -0.460459    -17.588509    -6.756364    -0.948639    2.134079    10.555834    -0.352582    0.051136    -8.348030    6.468543    0.719255    -3.136643    7.776972    0.000000    0.000000    0.000000    4.573561    7.618674    8.654716    -2.632241    -3.505419    -1.913637    -2.169084    -4.636227    -15.578558    0.000000    0.000000    0.000000    
-65.560951    94.335831    35.247185    -0.003951    -2.076438    87.662605    1.630028    -5.199774    -1.223795    0.676048    1.303182    -1.305503    -8.484487    29.913792    -3.814236    8.643301    -5.779582    -3.453850    15.209088    -0.897104    -1.253537    -22.645489    -13.093888    6.502931    4.144504    -14.231396    1.922990    3.223396    -14.116568    6.674759    -20.433510    0.453674    -6.651786    22.027922    -3.660174    4.231357    -2.228586    -6.950919    -0.445021    -17.822227    -6.815615    -0.924451    2.129401    10.547083    -0.336402    0.057728    -8.327455    6.479911    0.716062    -3.167971    7.756115    0.000000    0.000000    0.000000    4.583420    7.607354    8.637821    -2.642519    -3.484437    -1.926999    -2.181569    -4.653619    -15.547461    0.000000    0.000000    0.000000    
-65.545975    94.332359    35.249645    -0.002263    -2.074700    87.648300    1.621437    -5.197049    -1.215295    0.673714    1.330137    -1.296749    -8.458381    29.886538    -3.781173    8.635628    -5.787793    -3.414338    15.216930    -0.915013    -1.265275    -22.645113    -13.130244    6.513973    4.136762    -14.228804    1.927664    3.141781    -14.119888    6.627594    -20.419533    0.467777    -6.656635    22.022408    -3.687155    4.226806    -2.229250    -6.938163    -0.440365    -17.805302    -6.801260    -0.935046    2.124847    10.543824    -0.305986    0.055886    -8.296009    6.430882    0.719258    -3.200114    7.798596    0.000000    0.000000    0.000000    4.585507    7.602123    8.639778    -2.645942    -3.487120    -2.253263    -2.140896    -4.665308    -15.227106    0.000000    0.000000    0.000000    
-65.531197    94.329659    35.251186    -0.001990    -2.072506    87.635971    1.603191    -5.188457    -1.207824    0.699612    1.344198    -1.288653    -8.440450    29.874956    -3.753156    8.606992    -5.810180    -3.385577    15.201797    -0.931748    -1.276661    -22.648123    -13.106237    6.534949    4.116982    -14.251586    1.909626    3.099403    -14.144774    6.602511    -20.439470    0.449528    -6.677219    22.025593    -3.688939    4.224203    -2.219401    -6.914844    -0.428012    -17.785959    -6.776940    -0.940679    2.121161    10.543373    -0.277257    0.057268    -8.275569    6.409564    0.680903    -3.229674    7.800486    0.000000    0.000000    0.000000    4.605900    7.536293    8.193048    -2.638743    -3.357179    -1.757478    -2.111044    -4.770010    -15.272481    0.000000    0.000000    0.000000    
-65.516106    94.326988    35.252548    -0.005364    -2.072800    87.622833    1.610147    -5.185948    -1.205251    0.684258    1.351674    -1.286243    -8.441957    29.853344    -3.708177    8.625427    -5.783802    -3.335406    15.206626    -0.938599    -1.278993    -22.650558    -13.119996    6.543925    4.108357    -14.264531    1.921595    3.082170    -14.159955    6.565032    -20.427969    0.461636    -6.680512    22.018784    -3.722421    4.243880    -2.205536    -6.870951    -0.437212    -17.770504    -6.734175    -0.935005    2.115686    10.541469    -0.220295    0.054301    -8.258621    6.410079    0.702071    -3.248715    7.763605    0.000000    0.000000    0.000000    4.611959    7.525620    8.171320    -2.645535    -3.304433    -1.451999    -2.140946    -4.813682    -15.544495    0.000000    0.000000    0.000000    
-65.500046    94.325096    35.253868    -0.000684    -2.074017    87.613487    1.604313    -5.169639    -1.199294    0.692618    1.351680    -1.279900    -8.458600    29.845032    -3.671559    8.666815    -5.775292    -3.291411    15.203017    -0.949490    -1.278635    -22.657980    -13.149852    6.542224    4.102846    -14.265674    1.916558    3.111562    -14.158715    6.583020    -20.448824    0.461643    -6.690640    22.039730    -3.734858    4.252288    -2.208416    -6.836317    -0.452123    -17.738821    -6.706867    -0.891205    2.114713    10.551197    -0.195751    0.051094    -8.245757    6.389379    0.705180    -3.266921    7.772644    0.000000    0.000000    0.000000    4.618414    7.531288    8.141301    -2.650474    -3.288993    -1.414690    -2.117952    -4.832887    -15.551111    0.000000    0.000000    0.000000    
-65.483246    94.322807    35.255909    -0.002967    -2.074409    87.595558    1.592209    -5.174420    -1.192325    0.718708    1.381395    -1.272950    -8.478561    29.788504    -3.631092    8.681009    -5.723225    -3.248094    15.204636    -0.973291    -1.259275    -22.692570    -13.135069    6.529125    4.142082    -14.192001    1.947549    2.862959    -14.102504    6.505173    -20.475988    0.448001    -6.710255    22.047485    -3.717738    4.262058    -2.197514    -6.814358    -0.439698    -17.726427    -6.679265    -0.926523    2.109389    10.554199    -0.153682    0.057891    -8.230212    6.347841    0.687265    -3.284826    7.785720    0.000000    0.000000    0.000000    4.612188    7.583100    8.519987    -2.670108    -3.356974    -1.786707    -2.121653    -4.793339    -15.550214    0.000000    0.000000    0.000000    
-65.467903    94.321075    35.253849    -0.004644    -2.069016    87.588150    1.604776    -5.171215    -1.198787    0.696560    1.392815    -1.279768    -8.519607    29.694399    -3.580441    8.728140    -5.593154    -3.193102    15.225031    -0.987805    -1.238068    -22.724712    -13.123109    6.544175    4.139819    -14.204019    1.933375    2.923338    -14.110473    6.513071    -20.508421    0.440228    -6.709266    22.088034    -3.693842    4.282532    -2.200256    -6.811127    -0.451499    -17.684959    -6.678030    -0.917290    2.097449    10.559643    -0.123215    0.060201    -8.227613    6.353714    0.685286    -3.292847    7.758755    0.000000    0.000000    0.000000    4.610514    7.582864    8.483143    -2.678526    -3.350048    -1.797500    -2.110502    -4.807011    -15.511648    0.000000    0.000000    0.000000    
-65.457016    94.320313    35.256462    -0.030336    -2.077734    87.584541    1.617568    -5.178528    -1.209221    0.700934    1.377489    -1.290834    -8.615355    29.720396    -3.519284    8.838083    -5.598355    -3.123053    15.199287    -0.971385    -1.203096    -22.722527    -13.113961    6.524717    4.146934    -14.196399    1.947012    2.906878    -14.104342    6.513496    -20.519915    0.449798    -6.709193    22.093897    -3.702026    4.310772    -2.202892    -6.807690    -0.449595    -17.658663    -6.674602    -0.918429    2.108474    10.534640    -0.101903    0.057582    -8.211693    6.329809    0.677729    -3.312439    7.764305    0.000000    0.000000    0.000000    4.641260    7.501130    8.072592    -2.671450    -3.243972    -1.363314    -2.108474    -4.870754    -15.541841    0.000000    0.000000    0.000000    
-65.437187    94.321190    35.248802    -0.043355    -2.057308    87.555023    1.623547    -5.208527    -1.207453    0.676514    1.420994    -1.289691    -8.716688    29.578739    -3.437058    8.994208    -5.395302    -3.023804    15.215321    -0.977424    -1.165033    -22.766520    -13.051322    6.521279    4.164029    -14.230366    1.944377    2.917771    -14.137278    6.538890    -20.559057    0.417549    -6.740478    22.141178    -3.687815    4.363304    -2.208140    -6.814194    -0.457193    -17.659101    -6.683363    -0.904815    2.071656    10.545773    -0.093379    0.070388    -8.230194    6.386752    0.661142    -3.294072    7.737052    0.000000    0.000000    0.000000    4.611797    7.502306    8.094206    -2.671694    -3.257507    -1.390049    -2.082539    -4.879935    -15.509632    0.000000    0.000000    0.000000    
-65.422234    94.318565    35.250874    -0.055016    -2.063436    87.537529    1.642111    -5.222714    -1.210256    0.666998    1.447468    -1.293615    -8.679591    29.653915    -3.426156    8.900415    -5.570028    -3.018830    15.215671    -0.982948    -1.130924    -22.780409    -13.047179    6.508316    4.180078    -14.238542    1.971713    2.916592    -14.147443    6.511014    -20.585342    0.406287    -6.753055    22.171913    -3.664514    4.393937    -2.217297    -6.837197    -0.451222    -17.663980    -6.703879    -0.920224    2.076544    10.550847    -0.051387    0.067606    -8.234133    6.334526    0.650995    -3.308832    7.762033    0.000000    0.000000    0.000000    4.625122    7.484966    8.023472    -2.676824    -3.232072    -1.308805    -2.091014    -4.896098    -15.512487    0.000000    0.000000    0.000000    
-65.403458    94.317368    35.251301    -0.069884    -2.060102    87.515038    1.642459    -5.243420    -1.202725    0.660439    1.467869    -1.286406    -8.648195    29.615602    -3.397698    8.878183    -5.520016    -2.989595    15.228592    -0.976783    -1.103888    -22.797989    -13.036622    6.476161    4.179333    -14.261468    1.999704    2.896665    -14.172951    6.490499    -20.581814    0.401147    -6.771995    22.178362    -3.645256    4.416765    -2.230805    -6.866751    -0.447579    -17.698345    -6.732274    -0.925922    2.067436    10.554182    -0.034608    0.070689    -8.239192    6.361641    0.652289    -3.315979    7.751001    0.000000    0.000000    0.000000    4.620986    7.482340    8.037372    -2.678438    -3.237440    -1.354571    -2.086475    -4.904355    -15.467426    0.000000    0.000000    0.000000    
-65.381889    94.317070    35.250965    -0.076523    -2.059173    87.496773    1.632962    -5.256568    -1.189227    0.678740    1.479960    -1.273011    -8.654533    29.624876    -3.378588    8.910912    -5.524270    -2.964791    15.227440    -0.987428    -1.115995    -22.811392    -13.073510    6.471759    4.193385    -14.256092    2.013321    2.888471    -14.168030    6.519864    -20.584530    0.404832    -6.795579    22.166332    -3.627673    4.430739    -2.237009    -6.891758    -0.448076    -17.722933    -6.755908    -0.933737    2.067878    10.583463    -0.004263    0.056705    -8.268188    6.272528    0.663309    -3.309500    7.828606    0.000000    0.000000    0.000000    4.620816    7.489659    8.058789    -2.686613    -3.239640    -1.380869    -2.057042    -4.911403    -15.443187    0.000000    0.000000    0.000000    
-65.362549    94.314018    35.250229    -0.089308    -2.058037    87.473312    1.635267    -5.283403    -1.175393    0.676804    1.511941    -1.259826    -8.621311    29.449749    -3.445104    8.882477    -5.242173    -3.040864    15.253035    -1.005124    -1.113423    -22.857269    -13.070691    6.476984    4.216547    -14.263677    2.000764    2.894016    -14.175397    6.515070    -20.591255    0.410462    -6.808773    22.173540    -3.605104    4.436003    -2.247257    -6.911220    -0.442417    -17.738415    -6.775375    -0.932410    2.049905    10.572022    0.030816    0.080053    -8.243286    6.282535    0.654642    -3.332078    7.809594    0.000000    0.000000    0.000000    4.616616    7.491928    8.049871    -2.683323    -3.248273    -1.351742    -2.077019    -4.912836    -15.446627    0.000000    0.000000    0.000000    
